<?xml version="1.0" encoding="UTF-8"?>
<svg version="1.1" xmlns="http://www.w3.org/2000/svg" width="64" height="64">
<path d="M0 0 C5.94 0 11.88 0 18 0 C19.11823815 2.23647631 19.19396061 3.64891529 19.31640625 6.1328125 C19.35830078 6.93847656 19.40019531 7.74414062 19.44335938 8.57421875 C19.48267578 9.41597656 19.52199219 10.25773438 19.5625 11.125 C19.60568359 11.97449219 19.64886719 12.82398438 19.69335938 13.69921875 C19.79954236 15.79928223 19.90028497 17.89961948 20 20 C23.79759661 21.8987983 28.66133244 21.37560725 32.87890625 21.51757812 C38.78608631 21.78608631 38.78608631 21.78608631 41 24 C41.19852102 26.70922801 41.27839477 29.29303179 41.25 32 C41.26160156 33.10601562 41.26160156 33.10601562 41.2734375 34.234375 C41.2533196 39.7466804 41.2533196 39.7466804 39 42 C36.34462628 42.56520003 33.70855287 42.73788198 31 43 C31.10441406 44.10408203 31.10441406 44.10408203 31.2109375 45.23046875 C31.63833967 52.93388409 31.63833967 52.93388409 29.875 55.87890625 C28.375 57.25 28.375 57.25 25 59 C21.625 58.8125 21.625 58.8125 19 58 C18.855625 58.804375 18.71125 59.60875 18.5625 60.4375 C18 63 18 63 17 64 C14.17413249 64.15322744 11.38956118 64.23162755 8.5625 64.25 C7.77294922 64.270625 6.98339844 64.29125 6.16992188 64.3125 C3.87890625 64.328125 3.87890625 64.328125 0 64 C-2.06723714 60.89914429 -2.24497423 60.27068319 -2.1953125 56.76953125 C-2.18886719 55.96708984 -2.18242187 55.16464844 -2.17578125 54.33789062 C-2.15902344 53.50451172 -2.14226563 52.67113281 -2.125 51.8125 C-2.11597656 50.96751953 -2.10695313 50.12253906 -2.09765625 49.25195312 C-2.07410703 47.16784757 -2.03823647 45.08388783 -2 43 C-2.90093384 42.96241577 -2.90093384 42.96241577 -3.82006836 42.92407227 C-6.52611437 42.8084472 -9.23178283 42.68557064 -11.9375 42.5625 C-12.88302734 42.52318359 -13.82855469 42.48386719 -14.80273438 42.44335938 C-16.15141602 42.38051758 -16.15141602 42.38051758 -17.52734375 42.31640625 C-18.35999756 42.27974854 -19.19265137 42.24309082 -20.05053711 42.20532227 C-22 42 -22 42 -23 41 C-23.0983721 39.66956375 -23.13078592 38.33406656 -23.1328125 37 C-23.13410156 36.195625 -23.13539062 35.39125 -23.13671875 34.5625 C-23.13285156 33.716875 -23.12898438 32.87125 -23.125 32 C-23.12886719 31.154375 -23.13273437 30.30875 -23.13671875 29.4375 C-23.13542969 28.633125 -23.13414063 27.82875 -23.1328125 27 C-23.13168457 26.2575 -23.13055664 25.515 -23.12939453 24.75 C-23 23 -23 23 -22 22 C-20.48071962 21.92820036 -18.95832518 21.91607993 -17.4375 21.9375 C-16.61121094 21.94652344 -15.78492188 21.95554687 -14.93359375 21.96484375 C-13.97646484 21.98224609 -13.97646484 21.98224609 -13 22 C-13.33 21.01 -13.66 20.02 -14 19 C-14.3686858 14.02274174 -14.16456308 10.95570385 -11 7 C-8.00651705 4.90456194 -5.59951941 4.8000267 -2 5 C-1.34 3.35 -0.68 1.7 0 0 Z M-9.9375 8.9375 C-11.65821394 12.27770942 -11.57325751 15.38546056 -11 19 C-9.87188976 22.43316665 -8.50690952 25.71708997 -7 29 C-6.67 28.34 -6.34 27.68 -6 27 C-2.9375 26.375 -2.9375 26.375 0 26 C0 25.34 0 24.68 0 24 C0.99 24.33 1.98 24.66 3 25 C2.34 21.7 1.68 18.4 1 15 C1.66 15 2.32 15 3 15 C3.66 16.32 4.32 17.64 5 19 C4.70636093 15.57421081 4.0063241 14.00818413 1.875 11.25 C-1.78327985 8.38699838 -5.48784045 6.78443893 -9.9375 8.9375 Z M5 19 C5 19.66 5 20.32 5 21 C5.66 20.67 6.32 20.34 7 20 C6.34 19.67 5.68 19.34 5 19 Z M3 25 C3.66 26.32 4.32 27.64 5 29 C4.67 27.68 4.34 26.36 4 25 C3.67 25 3.34 25 3 25 Z M13 29 C14 31 14 31 14 31 Z M2 30 C3 32 3 32 3 32 Z M3 32 C4 34 4 34 4 34 Z M11 32 C12 34 12 34 12 34 Z M22 32 C23 34 23 34 23 34 Z M19 33 C20 35 20 35 20 35 Z M12 34 C13 36 13 36 13 36 Z M23 34 C23 34.99 23 35.98 23 37 C21.35 37.33 19.7 37.66 18 38 C18 38.66 18 39.32 18 40 C17.01 40 16.02 40 15 40 C15.66 42.97 16.32 45.94 17 49 C14.48916886 47.74458443 14.12874554 46.49936512 13 44 C12.67 44.66 12.34 45.32 12 46 C14.21733827 50.69052326 15.94541014 54.07444196 21 56 C24.17742605 56.0958418 24.17742605 56.0958418 27 55 C29.3256545 52.47211467 28.99155044 50.75073802 28.875 47.3125 C28.14182358 42.50612123 26.15145593 38.32292541 24 34 C23.67 34 23.34 34 23 34 Z M13 36 C14 38 14 38 14 38 Z M14 38 C15 40 15 40 15 40 Z " fill="#00B0BB" transform="translate(23,0)"/>
</svg>
